<?xml version="1.0" encoding="iso-8859-1"?>
<!-- Generator: Adobe Illustrator 19.0.0, SVG Export Plug-In . SVG Version: 6.00 Build 0)  -->
<svg version="1.1" id="Capa_1" width="28" height="36" fill="white" xmlns="http://www.w3.org/2000/svg" xmlns:xlink="http://www.w3.org/1999/xlink" x="0px" y="0px"
	 viewBox="0 0 311.2 311.2" style="enable-background:new 0 0 311.2 311.2;" xml:space="preserve">
<g>
	<g>
		<g>
			<path d="M120,0H46.8c-4.4,0-8,1.6-10.8,4.4c-2.8,2.8-4.4,6.8-4.4,10.8V296c0,4.4,1.6,8,4.4,10.8s6.8,4.4,10.8,4.4H120
				c4.4,0,8-1.6,10.8-4.4s4.4-6.8,4.4-10.8V15.6c0-4.4-1.6-8-4.4-10.8C128,1.6,124.4,0,120,0z M114.8,291.2H52.4V20.8h62.4V291.2z"
				/>
			<path d="M275.2,4.8c-2.8-3.2-6.8-4.8-10.8-4.8h-73.2c-4.4,0-8,1.6-10.8,4.4c-2.8,2.8-4.4,6.8-4.4,10.8V296c0,4.4,1.6,8,4.4,10.8
				s6.8,4.4,10.8,4.4h73.2c4.4,0,8-1.6,10.8-4.4s4.4-6.8,4.4-10.8V15.6C279.6,11.2,278,7.6,275.2,4.8z M258.8,291.2h-62.4V20.8h62.4
				V291.2z"/>
		</g>
	</g>
</g>
<g>
</g>
<g>
</g>
<g>
</g>
<g>
</g>
<g>
</g>
<g>
</g>
<g>
</g>
<g>
</g>
<g>
</g>
<g>
</g>
<g>
</g>
<g>
</g>
<g>
</g>
<g>
</g>
<g>
</g>
</svg>
